<svg xmlns="http://www.w3.org/2000/svg" xmlns:xlink="http://www.w3.org/1999/xlink" width="674" height="303.28" viewBox="0 0 674 303.28"><defs><path id="9mj7a" d="M418.61 555.87a3.5 3.5 0 0 1 3.5-3.5h1.02a3.5 3.5 0 0 1 3.5 3.5v15.9a3.5 3.5 0 0 1-3.5 3.5h-1.02a3.5 3.5 0 0 1-3.5-3.5z"/><path id="9mj7b" d="M389.1 272.92h22.36l11.67 11.67v22.36H389.1z"/><path id="9mj7c" d="M411.46 272.92l11.67 11.67h-11.67z"/><path id="9mj7d" d="M907 553v-82h65v82z"/><path id="9mj7e" d="M918.3 500.22V484.2h42.39v16.02z"/><path id="9mj7f" d="M514 349a6 6 0 0 0-6-6h-73a6 6 0 0 0-6 6v25.94a6 6 0 0 0 6 6h55.58l6.94 7.06v-7.06H508a6 6 0 0 0 6-6z"/><path id="9mj7g" d="M504.34 356.21a.49.49 0 0 0-.49-.49h-37.66a.49.49 0 1 0 0 .98h37.66c.27 0 .49-.22.49-.49z"/><path id="9mj7h" d="M485.98 367.95a.49.49 0 0 0-.49-.49h-19.3a.49.49 0 1 0 0 .98h19.3c.27 0 .49-.22.49-.49z"/><path id="9mj7i" d="M448.32 373.32c2.42 0 4.65-.82 6.44-2.2a7.74 7.74 0 0 0-7.41-5.62 7.72 7.72 0 0 0-6.9 4.3 10.54 10.54 0 0 0 7.87 3.52z"/><path id="9mj7j" d="M459.91 361.59c0-6.48-5.19-11.74-11.59-11.74-6.4 0-11.59 5.26-11.59 11.74s5.19 11.74 11.59 11.74c6.4 0 11.59-5.26 11.59-11.74z"/><path id="9mj7k" d="M452.18 358.65a3.89 3.89 0 0 0-3.87-3.91 3.89 3.89 0 0 0-3.86 3.91 3.89 3.89 0 0 0 3.87 3.92 3.89 3.89 0 0 0 3.86-3.92z"/><path id="9mj7l" d="M449 427a6 6 0 0 0-6-6h-83a6 6 0 0 0-6 6v29.31a6 6 0 0 0 6 6h62.82l7.76 7.69v-7.69H443a6 6 0 0 0 6-6z"/><path id="9mj7m" d="M439 435.5a.5.5 0 0 0-.5-.5h-43a.5.5 0 0 0 0 1h43a.5.5 0 0 0 .5-.5z"/><path id="9mj7n" d="M417 448.5a.5.5 0 0 0-.5-.5h-21a.5.5 0 0 0 0 1h21a.5.5 0 0 0 .5-.5z"/><path id="9mj7o" d="M376.35 455c3.32 0 6.34-1.27 8.65-3.36a9.72 9.72 0 0 0-9.13-6.64 9.7 9.7 0 0 0-8.87 5.95 12.86 12.86 0 0 0 9.35 4.05z"/><path id="9mj7p" d="M389 442a13 13 0 1 0-26 0 13 13 0 0 0 26 0z"/><path id="9mj7q" d="M380 438.5a4.5 4.5 0 1 0-9 0 4.5 4.5 0 0 0 9 0z"/><path id="9mj7r" d="M424 447.12l4.92 4.88 9.08-9"/><path id="9mj7s" d="M406 526.6a16.61 16.61 0 1 1 33.23.02 16.61 16.61 0 0 1-33.23-.01z"/><path id="9mj7t" d="M422.62 515.73a10.88 10.88 0 0 0-10.89 10.88"/><path id="9mj7u" d="M422.05 552.37v-9.16h1.15v9.16z"/><path id="9mj7y" d="M415.33 295.75a.48.48 0 0 0-.48-.48H398.3a.48.48 0 1 0 0 .97h16.53c.27 0 .49-.22.49-.48z"/><path id="9mj7z" d="M405.61 287a.48.48 0 0 0-.48-.48h-6.81a.48.48 0 1 0 0 .97h6.8c.27 0 .49-.22.49-.48z"/><path id="9mj7C" d="M918.3 512c0-.26.21-.47.47-.47h41.45a.47.47 0 0 1 0 .94h-41.45a.47.47 0 0 1-.47-.47z"/><path id="9mj7D" d="M918.3 524.25c0-.26.21-.47.47-.47h41.45a.47.47 0 0 1 0 .94h-41.45a.47.47 0 0 1-.47-.47z"/><path id="9mj7E" d="M917.36 537.45c0-.26.21-.47.47-.47h20.73a.47.47 0 0 1 0 .94h-20.73a.47.47 0 0 1-.47-.47z"/><path id="9mj7F" d="M989 298a12 12 0 0 1 12-12h13a12 12 0 0 1 12 12v6a12 12 0 0 1-12 12h-10.18c-2.34 2.7-6.41 5-6.41 5v-5.55A12 12 0 0 1 989 304z"/><path id="9mj7G" d="M997.54 296.88c0-.26.21-.47.47-.47h19.92c.27 0 .48.21.48.47 0 .27-.21.48-.47.48H998a.47.47 0 0 1-.47-.47z"/><path id="9mj7H" d="M997.54 304.44c0-.26.21-.47.47-.47h10.43c.27 0 .48.21.48.47 0 .27-.21.48-.47.48H998a.47.47 0 0 1-.47-.47z"/><path id="9mj7I" d="M1013 436.52a.48.48 0 0 0-.48-.48h-40.09a.48.48 0 1 0 0 .96h40.09c.27 0 .48-.21.48-.48z"/><path id="9mj7J" d="M1004.24 392.82l-28.86 28.77.3 7.66 7.76.3 28.86-28.68z"/><path id="9mj7K" d="M999.2 397.22l8.95 7.34"/><path id="9mj7L" d="M948 350.5a14.5 14.5 0 1 1 29 0 14.5 14.5 0 0 1-29 0z"/><path id="9mj7M" d="M955.48 352.84c.75 3.23 3.4 5.61 6.57 5.61 3.1 0 5.73-2.31 6.53-5.47"/><path id="9mj7N" d="M960.16 347.69a2.34 2.34 0 0 0-4.68 0"/><path id="9mj7O" d="M969.52 347.69a2.34 2.34 0 0 0-4.68 0"/><clipPath id="9mj7v"><use fill="#fff" xlink:href="#9mj7a"/></clipPath><clipPath id="9mj7w"><use fill="#fff" xlink:href="#9mj7b"/></clipPath><clipPath id="9mj7x"><use fill="#fff" xlink:href="#9mj7c"/></clipPath><clipPath id="9mj7A"><use fill="#fff" xlink:href="#9mj7d"/></clipPath><clipPath id="9mj7B"><use fill="#fff" xlink:href="#9mj7e"/></clipPath></defs><g><g transform="translate(-353 -272)"><g><g><use fill="#fff" fill-opacity="0" stroke="#e3e3e3" stroke-miterlimit="50" xlink:href="#9mj7f"/></g><g><use fill="#e3e3e3" xlink:href="#9mj7g"/></g><g><use fill="#e3e3e3" xlink:href="#9mj7h"/></g><g><use fill="#fff" fill-opacity="0" stroke="#e3e3e3" stroke-miterlimit="50" xlink:href="#9mj7i"/></g><g><use fill="#fff" fill-opacity="0" stroke="#e3e3e3" stroke-miterlimit="50" xlink:href="#9mj7j"/></g><g><use fill="#fff" fill-opacity="0" stroke="#e3e3e3" stroke-miterlimit="50" xlink:href="#9mj7k"/></g></g><g><use fill="#fff" fill-opacity="0" stroke="#e3e3e3" stroke-miterlimit="50" xlink:href="#9mj7l"/></g><g><use fill="#e3e3e3" xlink:href="#9mj7m"/></g><g><use fill="#e3e3e3" xlink:href="#9mj7n"/></g><g><use fill="#fff" fill-opacity="0" stroke="#e3e3e3" stroke-miterlimit="50" xlink:href="#9mj7o"/></g><g><use fill="#fff" fill-opacity="0" stroke="#e3e3e3" stroke-miterlimit="50" xlink:href="#9mj7p"/></g><g><use fill="#fff" fill-opacity="0" stroke="#e3e3e3" stroke-miterlimit="50" xlink:href="#9mj7q"/></g><g><use fill="#fff" fill-opacity="0" stroke="#e3e3e3" stroke-linecap="round" stroke-miterlimit="50" xlink:href="#9mj7r"/></g><g transform="rotate(-45 422.62 542.64)"><g><use fill="#fff" fill-opacity="0" stroke="#e3e3e3" stroke-miterlimit="50" xlink:href="#9mj7s"/></g><g><use fill="#fff" fill-opacity="0" stroke="#e3e3e3" stroke-miterlimit="50" xlink:href="#9mj7t"/></g><g><use fill="#e3e3e3" xlink:href="#9mj7u"/></g><g><use fill="#fff" fill-opacity="0" stroke="#e3e3e3" stroke-miterlimit="50" stroke-width="2" clip-path="url(&quot;#9mj7v&quot;)" xlink:href="#9mj7a"/></g></g><g transform="rotate(-10 406.11 289.94)"><g><g><use fill="#fff" fill-opacity="0" stroke="#e3e3e3" stroke-miterlimit="50" stroke-width="2" clip-path="url(&quot;#9mj7w&quot;)" xlink:href="#9mj7b"/></g><g><use fill="#fff" fill-opacity="0" stroke="#e3e3e3" stroke-miterlimit="50" stroke-width="2" clip-path="url(&quot;#9mj7x&quot;)" xlink:href="#9mj7c"/></g></g><g><use fill="#e3e3e3" xlink:href="#9mj7y"/></g><g><use fill="#e3e3e3" xlink:href="#9mj7z"/></g></g></g><g transform="translate(-353 -272)"><g transform="rotate(5 939.5 512)"><g><use fill="#fff" fill-opacity="0" stroke="#e3e3e3" stroke-miterlimit="50" stroke-width="2" clip-path="url(&quot;#9mj7A&quot;)" xlink:href="#9mj7d"/></g><g><use fill="#fff" fill-opacity="0" stroke="#e3e3e3" stroke-miterlimit="50" stroke-width="2" clip-path="url(&quot;#9mj7B&quot;)" xlink:href="#9mj7e"/></g><g><use fill="#e3e3e3" xlink:href="#9mj7C"/></g><g><use fill="#e3e3e3" xlink:href="#9mj7D"/></g><g><use fill="#e3e3e3" xlink:href="#9mj7E"/></g></g><g><g><use fill="#fff" fill-opacity="0" stroke="#e3e3e3" stroke-miterlimit="50" xlink:href="#9mj7F"/></g><g><use fill="#e3e3e3" xlink:href="#9mj7G"/></g><g><use fill="#e3e3e3" xlink:href="#9mj7H"/></g></g><g><g><use fill="#e3e3e3" xlink:href="#9mj7I"/></g><g><use fill="#fff" fill-opacity="0" stroke="#e3e3e3" stroke-miterlimit="50" xlink:href="#9mj7J"/></g><g><use fill="#fff" fill-opacity="0" stroke="#e3e3e3" stroke-miterlimit="50" xlink:href="#9mj7K"/></g></g><g><g><use fill="#fff" fill-opacity="0" stroke="#e3e3e3" stroke-miterlimit="50" xlink:href="#9mj7L"/></g><g><use fill="#fff" fill-opacity="0" stroke="#e3e3e3" stroke-miterlimit="50" xlink:href="#9mj7M"/></g><g><use fill="#fff" fill-opacity="0" stroke="#e3e3e3" stroke-miterlimit="50" xlink:href="#9mj7N"/></g><g><use fill="#fff" fill-opacity="0" stroke="#e3e3e3" stroke-miterlimit="50" xlink:href="#9mj7O"/></g></g></g></g></svg>